<svg width="1440" height="1715" viewBox="0 0 1440 1715" fill="none" xmlns="http://www.w3.org/2000/svg">
<path opacity="0.9" d="M1209.17 236C955.674 335.21 818.484 227.321 506.552 493.348C375.37 605.225 254.224 648.531 -0.628906 648.531L0.871614 1339.73L0.371094 1627.5C33.5713 1685.1 121.902 1665.58 161.667 1648.38C206.281 1631.58 239.007 1619.26 314.732 1645.74C422.494 1683.42 426.871 1692 547.687 1659.27C624.871 1648.38 653.871 1670.1 750.871 1692C814.966 1712.73 975.426 1737.38 1104.51 1670.1C1140.87 1651.15 1138.84 1652.03 1206.41 1657.97C1273.1 1659.73 1320.28 1649.35 1356.89 1618.84C1376.29 1602.67 1389.34 1583.14 1395.36 1574.69C1404.22 1562.25 1408.86 1551.42 1441.37 1545.41V0C1401.98 98.8944 1318.63 193.159 1209.17 236Z" fill="url(#paint0_linear_7_722)"/>
<defs>
<linearGradient id="paint0_linear_7_722" x1="722.942" y1="404.742" x2="722.942" y2="2372.21" gradientUnits="userSpaceOnUse">
<stop offset="0.03125" stop-color="#FEF5C6"/>
<stop offset="0.28125" stop-color="#FEF5C6"/>
<stop offset="0.729167" stop-color="#FECB00"/>
</linearGradient>
</defs>
</svg>
